<svg xmlns="http://www.w3.org/2000/svg" viewBox="0 0 1200 630" role="img" aria-labelledby="title desc">
  <title id="title">Abhyuday Mishra Research Portfolio</title>
  <desc id="desc">Quantum computing, neural operators, scientific machine learning, qudits, and knot-type recognition.</desc>
  <defs>
    <linearGradient id="bg" x1="0" y1="0" x2="1" y2="1">
      <stop offset="0%" stop-color="#f8f3e7"/>
      <stop offset="100%" stop-color="#e7efe8"/>
    </linearGradient>
    <radialGradient id="glowA" cx="0.2" cy="0.2" r="0.6">
      <stop offset="0%" stop-color="#0e7c66" stop-opacity="0.28"/>
      <stop offset="100%" stop-color="#0e7c66" stop-opacity="0"/>
    </radialGradient>
    <radialGradient id="glowB" cx="0.85" cy="0.18" r="0.5">
      <stop offset="0%" stop-color="#dd7e52" stop-opacity="0.22"/>
      <stop offset="100%" stop-color="#dd7e52" stop-opacity="0"/>
    </radialGradient>
  </defs>
  <rect width="1200" height="630" fill="url(#bg)"/>
  <rect width="1200" height="630" fill="url(#glowA)"/>
  <rect width="1200" height="630" fill="url(#glowB)"/>
  <g fill="none" stroke="#0e7c66" stroke-opacity="0.18">
    <path d="M104 486c91-144 195-222 311-233 93-9 175 19 249 83 63 55 138 86 226 94" stroke-width="3"/>
    <path d="M139 170c67 28 117 71 149 127 32 56 85 96 159 120 92 31 181 21 267-31 74-44 148-60 222-48" stroke-width="2.4"/>
  </g>
  <g transform="translate(86 102)">
    <rect x="0" y="0" width="1028" height="426" rx="32" fill="#fffaf2" fill-opacity="0.72" stroke="#15222f" stroke-opacity="0.08"/>
    <text x="72" y="110" fill="#0a5f4f" font-family="'Space Grotesk', Arial, sans-serif" font-size="28" letter-spacing="6">RESEARCH PORTFOLIO</text>
    <text x="72" y="218" fill="#15222f" font-family="'Space Grotesk', Arial, sans-serif" font-size="72" font-weight="700">Abhyuday Mishra</text>
    <text x="72" y="286" fill="#57626d" font-family="'Source Serif 4', Georgia, serif" font-size="30">
      Quantum Computing / Neural Operators / Scientific Machine Learning
    </text>
    <text x="72" y="340" fill="#57626d" font-family="'Source Serif 4', Georgia, serif" font-size="30">
      Qudits / Knot-Type Recognition / Topological Learning
    </text>
    <g transform="translate(72 378)">
      <rect x="0" y="0" width="220" height="54" rx="27" fill="#0e7c66" fill-opacity="0.12"/>
      <text x="28" y="35" fill="#0a5f4f" font-family="'Space Grotesk', Arial, sans-serif" font-size="24">Geometry-aware systems</text>
    </g>
    <g transform="translate(310 378)">
      <rect x="0" y="0" width="182" height="54" rx="27" fill="#0e7c66" fill-opacity="0.12"/>
      <text x="28" y="35" fill="#0a5f4f" font-family="'Space Grotesk', Arial, sans-serif" font-size="24">Qudit circuits</text>
    </g>
    <g transform="translate(510 378)">
      <rect x="0" y="0" width="214" height="54" rx="27" fill="#0e7c66" fill-opacity="0.12"/>
      <text x="28" y="35" fill="#0a5f4f" font-family="'Space Grotesk', Arial, sans-serif" font-size="24">Knot recognition</text>
    </g>
  </g>
</svg>
